<?xml version="1.0" encoding="UTF-8" standalone="no"?>
<!-- Created with Inkscape (http://www.inkscape.org/) -->

<svg
   xmlns:dc="http://purl.org/dc/elements/1.1/"
   xmlns:cc="http://creativecommons.org/ns#"
   xmlns:rdf="http://www.w3.org/1999/02/22-rdf-syntax-ns#"
   xmlns:svg="http://www.w3.org/2000/svg"
   xmlns="http://www.w3.org/2000/svg"
   xmlns:sodipodi="http://sodipodi.sourceforge.net/DTD/sodipodi-0.dtd"
   xmlns:inkscape="http://www.inkscape.org/namespaces/inkscape"
   width="500"
   height="268"
   id="svg2"
   version="1.1"
   inkscape:version="0.48.4 r9939"
   inkscape:export-filename="D:\c\KTANE\OnlyConnect\Assets\Misc\HieroglyphTwistedFlax2.png"
   inkscape:export-xdpi="90"
   inkscape:export-ydpi="90"
   sodipodi:docname="HieroglyphTwistedFlax.svg">
  <defs
     id="defs3004" />
  <sodipodi:namedview
     id="base"
     pagecolor="#083262"
     bordercolor="#666666"
     borderopacity="1.0"
     inkscape:pageopacity="0"
     inkscape:pageshadow="2"
     inkscape:zoom="2.704"
     inkscape:cx="243.46659"
     inkscape:cy="116.18042"
     inkscape:document-units="px"
     inkscape:current-layer="layer1"
     showgrid="true"
     inkscape:showpageshadow="true" />
  <metadata
     id="metadata7">
    <rdf:RDF>
      <cc:Work
         rdf:about="">
        <dc:format>image/svg+xml</dc:format>
        <dc:type
           rdf:resource="http://purl.org/dc/dcmitype/StillImage" />
        <dc:title></dc:title>
      </cc:Work>
    </rdf:RDF>
  </metadata>
  <g
     inkscape:label="Layer 1"
     inkscape:groupmode="layer"
     id="layer1"
     transform="translate(0,-784.36217)">
    <path
       style="fill:none;stroke:#000000;stroke-width:6;stroke-linecap:round;stroke-linejoin:round;stroke-miterlimit:4;stroke-opacity:1;stroke-dasharray:none"
       d="M 147.1259,914.02612 C 147.1259,914.02612 145.23702,912.84206 143.42443,912.20207 141.98138,911.69256 140.00808,911.52184 138.7425,911.42196 137.22595,911.30227 135.25372,911.41642 134.06065,911.92209"
       id="path3785"
       inkscape:connector-curvature="0"
       sodipodi:nodetypes="cssc" />
    <path
       style="fill:none;stroke:#000000;stroke-width:8;stroke-linecap:round;stroke-linejoin:round;stroke-miterlimit:4;stroke-opacity:1;stroke-dasharray:none"
       d="M 135.23854,897.0526 C 136.2898,899.81513 132.44121,901.46392 133.38555,904.37969 134.32554,907.28201 133.29246,910.42324 133.94107,913.45494 134.65455,916.78985 134.99247,921.13073 138.4286,922.66306 141.66198,924.10497 145.35532,923.97096 148.8335,923.92193 151.59245,923.88304 154.41936,924.66404 157.08271,923.94134 159.51072,923.2825 160.73214,920.71271 162.76989,919.43488 166.81702,916.89702 173.90122,915.6428 177.97276,918.12074"
       id="path3787"
       inkscape:connector-curvature="0"
       sodipodi:nodetypes="cssssssc" />
    <path
       style="fill:none;stroke:#000000;stroke-width:8;stroke-linecap:round;stroke-linejoin:round;stroke-miterlimit:4;stroke-opacity:1;stroke-dasharray:none"
       d="M 128.51491,898.99416 C 133.53069,892.71656 138.27424,885.12537 143.42911,880.78284 149.10837,875.99856 150.6771,869.78461 152.84556,863.27725 155.60615,854.99295 163.08019,849.16108 171.52818,849.61812 181.16112,850.13926 190.68171,848.55905 200.15502,846.95076 208.15971,845.5918 216.09853,849.14622 222.72059,853.2647 230.48685,858.09479 232.04826,868.23298 238.81059,874.10386 245.14425,879.60257 248.71156,886.99645 253.26883,893.79871 258.46069,901.54816 261.54853,911.25172 260.18948,920.36464 258.69721,930.37091 255.7082,940.24586 251.85128,949.59316 248.46894,957.79032 241.19007,963.58931 235.88013,970.58216 233.44733,973.786 229.50477,975.97134 228.18047,979.87696"
       id="path3789"
       inkscape:connector-curvature="0"
       sodipodi:nodetypes="cssssssssssc" />
    <path
       style="fill:none;stroke:#000000;stroke-width:8;stroke-linecap:round;stroke-linejoin:round;stroke-miterlimit:4;stroke-opacity:1;stroke-dasharray:none"
       d="M 152.36686,865.23199 C 156.18227,866.07694 160.13371,865.32329 163.8344,864.22559 167.41305,863.16409 171.31135,862.96352 174.92604,863.7527 177.57785,864.33166 181.19278,864.58679 182.92574,865.66012 187.19791,868.30614 189.82778,862.76832 193.55777,862.02506 197.20389,861.29852 201.67438,859.90709 204.7513,861.97078 207.91839,864.09495 210.53245,870.8296 206.19811,874.18458 203.27976,876.44351 199.64384,877.26558 196.03009,877.27513 191.01634,877.28838 191.02805,882.70971 191.95146,885.8881 193.20794,890.21291 191.32857,894.84018 190.27963,899.14463 189.213,903.52167 186.17005,906.24597 183.78062,909.73815 181.91806,912.46029 180.59863,915.60564 178.22024,918.26102 175.47642,921.3244 174.31382,925.08615 172.25632,928.59373 170.36963,931.81012 169.60554,935.58177 169.16505,939.31946 168.74378,942.89403 167.82299,946.40133 167.89941,950.00598 167.96674,953.18219 167.89941,956.35981 167.89941,959.53673"
       id="path3791"
       inkscape:connector-curvature="0"
       sodipodi:nodetypes="cssssssssssssssc" />
    <path
       style="fill:none;stroke:#000000;stroke-width:5;stroke-linecap:round;stroke-linejoin:round;stroke-miterlimit:4;stroke-opacity:1;stroke-dasharray:none"
       d="M 158.77899,876.33049 C 160.54043,876.8705 161.01879,878.16969 161.69355,879.52914 161.98517,880.14253 163.03351,880.11593 163.27097,879.47043 164.53372,878.60752 165.18251,877.50342 166.13716,876.74502 166.08347,876.16669 165.38507,876.01284 164.91546,876.16415 162.98315,876.53388 160.56696,876.35301 158.77899,876.33049 z"
       id="path3805"
       inkscape:connector-curvature="0"
       sodipodi:nodetypes="cccccc" />
    <path
       style="fill:none;stroke:#000000;stroke-width:8;stroke-linecap:round;stroke-linejoin:round;stroke-miterlimit:4;stroke-opacity:1;stroke-dasharray:none"
       d="M 248.89053,886.31187 C 255.67522,890.16467 261.67324,895.42945 269.08723,898.12722 278.11128,901.86076 287.8608,903.138 297.5056,904.08994 302.9058,904.66166 308.32529,905.04714 313.75105,905.2674"
       id="path3807"
       inkscape:connector-curvature="0" />
    <path
       style="fill:none;stroke:#000000;stroke-width:8;stroke-linecap:round;stroke-linejoin:round;stroke-miterlimit:4;stroke-opacity:1;stroke-dasharray:none"
       d="M 212.27811,980.36217 C 208.90839,969.61312 216.62827,959.00605 223.55249,951.76638 230.006,945.01886 234.72708,933.34264 229.12615,925.31231 223.72715,917.5715 211.88194,914.3226 202.6233,917.20563 191.02738,920.81646 187.2662,933.3619 183.71351,943.4341 180.05518,953.8058 174.60382,958.8889 164.00232,960.39281 153.68097,961.85698 141.60378,962.83009 131.26059,963.50663 116.83295,964.45034 102.35752,963.81897 87.946638,964.10092 80.871591,964.23934 69.265572,980.36217 79.419928,980.36217 79.419928,980.36217 109.2961,980.36217 124.23418,980.36217 165.85976,980.36217 249.11092,980.36217 249.11092,980.36217 260.61621,980.36217 271.4363,975.54038 281.56592,969.59005 292.83223,962.972 306.74171,966.33975 319.2571,963.74011 320.68236,963.44406 322.60304,963.17629 324.0523,963.03882"
       id="path3809"
       inkscape:connector-curvature="0"
       sodipodi:nodetypes="cssssssssssssc" />
    <path
       style="fill:none;stroke:#000000;stroke-width:8;stroke-linecap:round;stroke-linejoin:round;stroke-miterlimit:4;stroke-opacity:1;stroke-dasharray:none"
       d="M 291.42012,966.56335 C 283.77729,984.37695 298.34717,979.88874 309.61684,980.36217 315.06588,980.66915 324.62613,980.36217 332.13078,980.36217 340.25889,980.36217 348.387,980.36217 356.51511,980.36217 365.54676,980.36217 371.48674,980.33744 383.61006,980.36217 399.50581,980.39459 413.15594,983.68219 415.8417,963.5128 416.00992,949.69478 405.34123,938.20353 398.29808,929.94611 382.9346,911.96266 355.60891,904.04479 333.56995,903.97265"
       id="path3811"
       inkscape:connector-curvature="0"
       sodipodi:nodetypes="ccsssccc" />
    <path
       style="fill:none;stroke:#000000;stroke-width:8;stroke-linecap:round;stroke-linejoin:round;stroke-miterlimit:4;stroke-opacity:1;stroke-dasharray:none"
       d="M 388.68343,962.86513 C 370.70734,970.93743 349.44779,964.24855 335.07887,951.53786 323.12361,940.96228 319.38445,924.59041 326.973,910.84683 335.39292,895.59755 350.56856,892.93234 365.83075,887.2502 373.28701,884.47423 367.3189,874.73924 355.21282,877.03545 343.95134,879.17147 331.14507,884.57243 324.43935,891.25426 304.08002,911.54103 302.96334,937.23999 320.87146,958.86606 327.28123,966.60658 335.27076,972.84158 343.34845,978.74699"
       id="path3815"
       inkscape:connector-curvature="0"
       sodipodi:nodetypes="cssssssc" />
  </g>
</svg>
