<?xml version="1.0" encoding="UTF-8" standalone="no"?>
<!-- Created with Inkscape (http://www.inkscape.org/) -->

<svg
   xmlns:dc="http://purl.org/dc/elements/1.1/"
   xmlns:cc="http://creativecommons.org/ns#"
   xmlns:rdf="http://www.w3.org/1999/02/22-rdf-syntax-ns#"
   xmlns:svg="http://www.w3.org/2000/svg"
   xmlns="http://www.w3.org/2000/svg"
   xmlns:sodipodi="http://sodipodi.sourceforge.net/DTD/sodipodi-0.dtd"
   xmlns:inkscape="http://www.inkscape.org/namespaces/inkscape"
   width="500"
   height="268"
   id="svg2"
   version="1.1"
   inkscape:version="0.48.4 r9939"
   inkscape:export-filename="D:\c\KTANE\OnlyConnect\Assets\Misc\HieroglyphWater1.png"
   inkscape:export-xdpi="90"
   inkscape:export-ydpi="90"
   sodipodi:docname="HieroglyphEyeOfHorus.svg">
  <defs
     id="defs3004" />
  <sodipodi:namedview
     id="base"
     pagecolor="#083262"
     bordercolor="#666666"
     borderopacity="1.0"
     inkscape:pageopacity="0"
     inkscape:pageshadow="2"
     inkscape:zoom="2.796"
     inkscape:cx="250"
     inkscape:cy="134"
     inkscape:document-units="px"
     inkscape:current-layer="layer1"
     showgrid="true"
     inkscape:showpageshadow="true" />
  <metadata
     id="metadata7">
    <rdf:RDF>
      <cc:Work
         rdf:about="">
        <dc:format>image/svg+xml</dc:format>
        <dc:type
           rdf:resource="http://purl.org/dc/dcmitype/StillImage" />
        <dc:title />
      </cc:Work>
    </rdf:RDF>
  </metadata>
  <g
     inkscape:label="Layer 1"
     inkscape:groupmode="layer"
     id="layer1"
     transform="translate(0,-784.36217)">
    <g
       id="g3785">
      <path
         sodipodi:nodetypes="cccc"
         inkscape:connector-curvature="0"
         id="path2993"
         d="M 350.2924,882.18673 C 287.58538,855.01006 267.33524,846.92193 227.32428,850.55109 197.6381,855.82222 173.49109,871.68271 154.80603,886.67854 157.43023,888.79756 164.41787,897.37511 166.08187,900.31538"
         style="fill:none;stroke:#000000;stroke-width:8;stroke-linecap:round;stroke-linejoin:round;stroke-miterlimit:4;stroke-opacity:1;stroke-dasharray:none" />
      <path
         sodipodi:nodetypes="ccscsc"
         inkscape:connector-curvature="0"
         id="path3000"
         d="M 359.94152,914.05808 C 338.79229,906.64208 325.23585,902.7939 309.0682,895.73395 286.051,885.68458 273.51032,880.30165 243.79175,880.40966 213.30485,880.52047 164.91007,893.6211 152.98163,911.67317 178.82889,933.62851 200.87916,940.45771 234.97672,941.3083 277.56149,942.37061 308.38116,919.49675 328.87642,903.94527"
         style="fill:none;stroke:#000000;stroke-width:8;stroke-linecap:round;stroke-linejoin:round;stroke-miterlimit:4;stroke-opacity:1;stroke-dasharray:none" />
      <path
         sodipodi:nodetypes="cssc"
         inkscape:connector-curvature="0"
         id="path3005"
         d="M 238.30409,880.43234 C 225.92386,887.93746 226.29889,900.68913 235.56063,906.58522 244.89362,912.52667 258.54983,909.96108 262.45014,897.13005 264.28666,891.08836 259.35914,883.92749 254.38596,880.72474"
         style="fill:none;stroke:#000000;stroke-width:8;stroke-linecap:round;stroke-linejoin:round;stroke-miterlimit:4;stroke-opacity:1;stroke-dasharray:none" />
      <path
         sodipodi:nodetypes="csssssssssc"
         inkscape:connector-curvature="0"
         id="path3012"
         d="M 221.34503,940.66626 C 221.25639,951.63478 218.83929,962.59614 221.6891,973.54629 223.7742,981.55811 225.85558,991.89387 235.76523,992.96538 245.36023,994.00287 247.12933,981.69552 243.8632,974.43111 240.29223,966.48869 238.31626,956.71255 239.93366,948.04123 241.5059,939.61205 248.50332,944.61571 260.40877,950.67017 272.4236,956.78025 279.98559,962.33013 292.57925,971.9234 302.23397,979.27791 308.07618,984.15015 316.66177,986.20559 326.1094,988.46741 338.01815,987.77226 343.5188,979.86093 348.61094,972.53714 349.98475,960.37201 341.45477,955.89985 336.29952,953.19702 328.08442,954.96156 326.02339,960.8417"
         style="fill:none;stroke:#000000;stroke-width:8;stroke-linecap:round;stroke-linejoin:round;stroke-miterlimit:4;stroke-opacity:1;stroke-dasharray:none" />
    </g>
  </g>
</svg>
