<?xml version="1.0" encoding="UTF-8" standalone="no"?>
<!-- Created with Inkscape (http://www.inkscape.org/) -->

<svg
   xmlns:dc="http://purl.org/dc/elements/1.1/"
   xmlns:cc="http://creativecommons.org/ns#"
   xmlns:rdf="http://www.w3.org/1999/02/22-rdf-syntax-ns#"
   xmlns:svg="http://www.w3.org/2000/svg"
   xmlns="http://www.w3.org/2000/svg"
   xmlns:sodipodi="http://sodipodi.sourceforge.net/DTD/sodipodi-0.dtd"
   xmlns:inkscape="http://www.inkscape.org/namespaces/inkscape"
   width="500"
   height="268"
   id="svg2"
   version="1.1"
   inkscape:version="0.48.4 r9939"
   inkscape:export-filename="D:\c\KTANE\OnlyConnect\Assets\Misc\HieroglyphHornedViper1.png"
   inkscape:export-xdpi="90"
   inkscape:export-ydpi="90"
   sodipodi:docname="HieroglyphHornedViper.svg">
  <defs
     id="defs3004" />
  <sodipodi:namedview
     id="base"
     pagecolor="#083262"
     bordercolor="#666666"
     borderopacity="1.0"
     inkscape:pageopacity="0"
     inkscape:pageshadow="2"
     inkscape:zoom="2.704"
     inkscape:cx="250"
     inkscape:cy="134"
     inkscape:document-units="px"
     inkscape:current-layer="layer1"
     showgrid="true"
     inkscape:showpageshadow="true" />
  <metadata
     id="metadata7">
    <rdf:RDF>
      <cc:Work
         rdf:about="">
        <dc:format>image/svg+xml</dc:format>
        <dc:type
           rdf:resource="http://purl.org/dc/dcmitype/StillImage" />
        <dc:title></dc:title>
      </cc:Work>
    </rdf:RDF>
  </metadata>
  <g
     inkscape:label="Layer 1"
     inkscape:groupmode="layer"
     id="layer1"
     transform="translate(0,-784.36217)">
    <path
       style="fill:none;stroke:#000000;stroke-width:8;stroke-linecap:round;stroke-linejoin:round;stroke-miterlimit:4;stroke-opacity:1;stroke-dasharray:none"
       d="M 125.73964,891.48939 C 142.99603,892.54189 158.81801,902.14817 174.37701,909.40948 199.94088,921.34001 208.42275,917.563 225.59172,913.30891 240.06802,909.72201 255.33519,905.6168 270.10828,904.48137 291.93741,902.80364 302.61087,909.60326 320.26627,917.00714 333.74806,922.6608 346.81722,928.28373 360.87998,931.27961 372.40092,933.73398 393.61695,933.32716 404.48141,928.36035 389.64917,938.07434 378.18511,940.59445 367.02506,940.33147 345.19465,939.81706 323.22458,932.61239 307.28847,927.79499 289.35079,922.37253 276.15979,922.78172 255.47452,931.23505 236.67446,938.91796 224.44961,939.75626 209.28154,939.94437 194.4676,940.1281 181.54479,933.05611 169.00888,926.2527 153.64605,917.91509 137.06502,913.67344 119.57701,914.06195 93.907438,914.63222 95.623092,904.83407 109.22408,895.59376 113.90551,892.41326 119.98067,891.13814 125.73964,891.48939 z"
       id="path4089"
       inkscape:connector-curvature="0"
       sodipodi:nodetypes="sssssscssssssss" />
    <path
       style="fill:none;stroke:#000000;stroke-width:8;stroke-linecap:round;stroke-linejoin:round;stroke-miterlimit:4;stroke-opacity:1;stroke-dasharray:none"
       d="M 117.47472,891.98996 C 114.23262,885.78198 108.08965,883.43438 101.52929,885.88573 107.08994,887.4646 109.3988,889.90892 110.40323,894.77485"
       id="path4095"
       inkscape:connector-curvature="0"
       sodipodi:nodetypes="ccc" />
    <path
       style="fill:none;stroke:#000000;stroke-width:8;stroke-linecap:round;stroke-linejoin:round;stroke-miterlimit:4;stroke-opacity:1;stroke-dasharray:none"
       d="M 132.19027,892.25635 C 135.78967,886.77587 143.14498,881.57948 149.25949,885.93921 144.50548,886.6513 141.32863,889.94595 140.88528,894.34838"
       id="path4109"
       inkscape:connector-curvature="0"
       sodipodi:nodetypes="ccc" />
  </g>
</svg>
