<?xml version="1.0" encoding="UTF-8" standalone="no"?>
<!-- Created with Inkscape (http://www.inkscape.org/) -->

<svg
   xmlns:dc="http://purl.org/dc/elements/1.1/"
   xmlns:cc="http://creativecommons.org/ns#"
   xmlns:rdf="http://www.w3.org/1999/02/22-rdf-syntax-ns#"
   xmlns:svg="http://www.w3.org/2000/svg"
   xmlns="http://www.w3.org/2000/svg"
   xmlns:sodipodi="http://sodipodi.sourceforge.net/DTD/sodipodi-0.dtd"
   xmlns:inkscape="http://www.inkscape.org/namespaces/inkscape"
   width="500"
   height="268"
   id="svg2"
   version="1.1"
   inkscape:version="0.48.4 r9939"
   inkscape:export-filename="D:\c\KTANE\OnlyConnect\Assets\Misc\HieroglyphTwistedFlax2.png"
   inkscape:export-xdpi="90"
   inkscape:export-ydpi="90"
   sodipodi:docname="HieroglyphLion.svg">
  <defs
     id="defs3004" />
  <sodipodi:namedview
     id="base"
     pagecolor="#083262"
     bordercolor="#666666"
     borderopacity="1.0"
     inkscape:pageopacity="0"
     inkscape:pageshadow="2"
     inkscape:zoom="2.704"
     inkscape:cx="243.46659"
     inkscape:cy="116.18042"
     inkscape:document-units="px"
     inkscape:current-layer="layer1"
     showgrid="true"
     inkscape:showpageshadow="true" />
  <metadata
     id="metadata7">
    <rdf:RDF>
      <cc:Work
         rdf:about="">
        <dc:format>image/svg+xml</dc:format>
        <dc:type
           rdf:resource="http://purl.org/dc/dcmitype/StillImage" />
        <dc:title></dc:title>
      </cc:Work>
    </rdf:RDF>
  </metadata>
  <g
     inkscape:label="Layer 1"
     inkscape:groupmode="layer"
     id="layer1"
     transform="translate(0,-784.36217)">
    <path
       style="fill:none;stroke:#060000;stroke-width:8;stroke-linecap:round;stroke-linejoin:round;stroke-miterlimit:4;stroke-opacity:1;stroke-dasharray:none"
       d="M 230.39941,1021.6669 C 231.36023,1008.3577 236.51309,998.92148 243.49622,987.4571 248.42442,979.36633 256.59486,970.85232 261.3689,962.67187 265.05612,956.35373 265.38083,947.67312 258.75461,938.77027 253.20811,931.31811 249.38767,926.77794 242.97004,919.28492 237.06149,912.38629 235.54343,909.15755 235.34808,900.54796 235.0549,887.62608 245.86758,878.01918 251.78026,871.55795 259.46501,863.16027 263.49031,855.62211 263.61152,844.87776 263.7366,833.79038 259.44461,825.59516 249.98838,825.38141 240.61785,825.1696 235.75698,834.56062 236.06007,846.25117 236.37008,858.2084 247.27939,871.70432 253.4196,878.51055 259.3316,885.0638 264.28883,890.47036 263.97603,900.26396 263.55765,913.36313 254.10316,920.55388 249.76193,926.79417 246.32882,931.72909 240.72779,935.25027 237.56049,942.52129 234.49338,949.56233 234.41289,957.79638 239.01777,964.38189 244.50345,972.22704 253.21356,982.54526 258.18325,990.66249 265.92165,1003.3019 268.10874,1009.6057 269.60059,1021.6668"
       id="path3974"
       inkscape:connector-curvature="0"
       sodipodi:nodetypes="csssssssssssssssc" />
  </g>
</svg>
