<?xml version="1.0" encoding="UTF-8" standalone="no"?>
<!-- Created with Inkscape (http://www.inkscape.org/) -->

<svg
   xmlns:dc="http://purl.org/dc/elements/1.1/"
   xmlns:cc="http://creativecommons.org/ns#"
   xmlns:rdf="http://www.w3.org/1999/02/22-rdf-syntax-ns#"
   xmlns:svg="http://www.w3.org/2000/svg"
   xmlns="http://www.w3.org/2000/svg"
   xmlns:sodipodi="http://sodipodi.sourceforge.net/DTD/sodipodi-0.dtd"
   xmlns:inkscape="http://www.inkscape.org/namespaces/inkscape"
   width="500"
   height="268"
   id="svg2"
   version="1.1"
   inkscape:version="0.48.4 r9939"
   inkscape:export-filename="D:\c\KTANE\OnlyConnect\Assets\Misc\HieroglyphEyeOfHorus2.png"
   inkscape:export-xdpi="90"
   inkscape:export-ydpi="90"
   sodipodi:docname="HieroglyphHornedViper.svg">
  <defs
     id="defs3004" />
  <sodipodi:namedview
     id="base"
     pagecolor="#083262"
     bordercolor="#666666"
     borderopacity="1.0"
     inkscape:pageopacity="0"
     inkscape:pageshadow="2"
     inkscape:zoom="2.796"
     inkscape:cx="250"
     inkscape:cy="134"
     inkscape:document-units="px"
     inkscape:current-layer="layer1"
     showgrid="true"
     inkscape:showpageshadow="true" />
  <metadata
     id="metadata7">
    <rdf:RDF>
      <cc:Work
         rdf:about="">
        <dc:format>image/svg+xml</dc:format>
        <dc:type
           rdf:resource="http://purl.org/dc/dcmitype/StillImage" />
        <dc:title />
      </cc:Work>
    </rdf:RDF>
  </metadata>
  <g
     inkscape:label="Layer 1"
     inkscape:groupmode="layer"
     id="layer1"
     transform="translate(0,-784.36217)">
    <g
       id="g3824">
      <path
         sodipodi:nodetypes="cssssssssssssc"
         inkscape:connector-curvature="0"
         id="path2983"
         d="M 399.49393,930.03736 C 388.39499,940.12582 372.55788,939.51336 360.46138,940.08391 334.54243,941.30642 309.60491,924.19829 284.21031,924.42022 268.98467,924.55328 257.61034,929.32315 243.60848,934.85392 233.8517,938.70787 223.40621,941.84143 212.58955,940.83886 196.55291,939.35246 182.55851,934.78938 168.11163,927.35059 158.76156,922.53618 147.30539,915.88142 136.29514,915.33725 126.32674,914.84457 112.57638,917.7866 106.38942,912.32296 94.683271,901.98537 113.39181,889.21716 125.16255,890.57061 140.80551,892.36931 154.57559,900.6395 168.49824,906.91974 188.64217,916.00628 210.63091,920.40682 232.90439,912.47028 252.25317,905.57588 273.43759,902.80344 294.16893,907.20294 319.79678,912.64155 337.99941,931.28239 367.26775,932.82579 378.9874,933.4438 387.46926,932.59186 399.49393,930.03736 z"
         style="fill:none;stroke:#000000;stroke-width:8;stroke-linecap:butt;stroke-linejoin:round;stroke-miterlimit:4.70000000000000020;stroke-opacity:1;stroke-dasharray:none" />
      <path
         sodipodi:nodetypes="ccc"
         inkscape:connector-curvature="0"
         id="path2990"
         d="M 115.49708,891.54346 C 113.66897,886.81203 108.0971,886.40781 103.38437,886.97469 108.86395,895.87623 109.34023,890.17441 110.23392,894.46743"
         style="fill:none;stroke:#000000;stroke-width:8;stroke-linecap:butt;stroke-linejoin:round;stroke-miterlimit:4;stroke-opacity:1;stroke-dasharray:none" />
      <path
         sodipodi:nodetypes="cccc"
         inkscape:connector-curvature="0"
         id="path2992"
         d="M 132.45614,891.83585 C 136.01907,885.96401 137.84302,882.71511 145.33083,884.96477 141.55848,888.22796 140.72664,889.47477 139.83052,892.62346 139.72655,893.04718 139.61653,893.47009 139.47368,893.88264"
         style="fill:none;stroke:#000000;stroke-width:8;stroke-linecap:butt;stroke-linejoin:round;stroke-miterlimit:4;stroke-opacity:1;stroke-dasharray:none" />
    </g>
  </g>
</svg>
